<?xml version="1.0" encoding="UTF-8"?>
<svg width="308px" height="151px" viewBox="0 0 308 151" version="1.1" xmlns="http://www.w3.org/2000/svg" xmlns:xlink="http://www.w3.org/1999/xlink">
    <!-- Generator: Sketch 46.2 (44496) - http://www.bohemiancoding.com/sketch -->
    <title>Artboardexcel</title>
    <desc>Created with Sketch.</desc>
    <defs></defs>
    <g id="Page-1" stroke="none" stroke-width="1" fill="none" fill-rule="evenodd">
        <g id="Artboard">
            <g id="Group-2" transform="translate(91.000000, 9.000000)">
                <path d="M75.3676471,11.5645366 L75.3676471,0 L0,11.5645366 L0,113.714084 L75.3676471,126 L75.3676471,108.465534 L120,108.465534 C122.761424,108.465534 125,106.226958 125,103.465534 L125,16.5645366 C125,13.8031129 122.761424,11.5645366 120,11.5645366 L75.3676471,11.5645366 Z" id="Combined-Shape" fill="#19754C"></path>
                <polygon id="Rectangle-2-Copy" fill="#FFFFFF" points="75 16 120 16 120 103 75 103"></polygon>
                <rect id="Rectangle-3" fill="#19754C" x="94" y="24" width="19" height="9"></rect>
                <rect id="Rectangle-3-Copy" fill="#19754C" x="94" y="40" width="19" height="9"></rect>
                <rect id="Rectangle-3-Copy-2" fill="#19754C" x="94" y="55" width="19" height="9"></rect>
                <rect id="Rectangle-3-Copy-3" fill="#19754C" x="94" y="72" width="19" height="9"></rect>
                <rect id="Rectangle-3-Copy-4" fill="#19754C" x="94" y="87" width="19" height="9"></rect>
                <rect id="Rectangle-3-Copy-5" fill="#19754C" x="68" y="87" width="19" height="9"></rect>
                <rect id="Rectangle-3-Copy-6" fill="#19754C" x="68" y="71" width="19" height="9"></rect>
                <rect id="Rectangle-3-Copy-7" fill="#19754C" x="68" y="55" width="19" height="9"></rect>
                <rect id="Rectangle-3-Copy-8" fill="#19754C" x="68" y="40" width="19" height="9"></rect>
                <rect id="Rectangle-3-Copy-9" fill="#19754C" x="68" y="24" width="19" height="9"></rect>
                <polygon id="X" fill="#FFFFFF" points="19.9066667 40 30.527619 62.7422969 19 82.905907 29.232381 82.905907 35.8380952 70.4089636 42.5085714 86 53 86 41.472381 62.7422969 52.2228571 40 42.0552381 40 36.1619048 54.8823529 30.2038095 40"></polygon>
            </g>
        </g>
    </g>
</svg>